<svg width="33" height="39" viewBox="0 0 33 39" fill="none" xmlns="http://www.w3.org/2000/svg">
<path fill-rule="evenodd" clip-rule="evenodd" d="M23.6322 0C23.9724 2.31105 23.0318 4.57513 21.7909 6.17698C20.4632 7.89517 18.1749 9.22408 15.9577 9.15473C15.553 6.94211 16.5893 4.66238 17.8502 3.12988C19.2335 1.43854 21.6041 0.140945 23.6322 0ZM30.2927 32.5293C31.4357 30.7775 31.8627 29.8938 32.75 27.9161C26.2964 25.4619 25.2624 16.287 31.6492 12.7656C29.7011 10.3226 26.9636 8.90639 24.3795 8.90639C22.5175 8.90639 21.2418 9.39229 20.082 9.83402C19.1155 10.2021 18.2296 10.5396 17.152 10.5396C15.9876 10.5396 14.9564 10.1698 13.8767 9.78271C12.6902 9.3573 11.4451 8.91087 9.90011 8.91087C7.00023 8.91087 3.91355 10.6828 1.95658 13.712C-0.794304 17.9783 -0.325075 25.9988 4.13593 32.8313C5.73042 35.2766 7.86086 38.0239 10.6473 38.0485C11.8035 38.06 12.5729 37.7149 13.4055 37.3415C14.3585 36.914 15.3942 36.4495 17.1876 36.4399C18.9916 36.4291 20.011 36.8993 20.9513 37.333C21.7625 37.7072 22.5149 38.0542 23.6612 38.0418C26.4499 38.0194 28.6982 34.9745 30.2927 32.5293Z" fill="#F7F8F7"/>
</svg>
