<svg width="38" height="40" viewBox="0 0 38 40" fill="none" xmlns="http://www.w3.org/2000/svg">
<path d="M27.5632 26.061C32.2167 23.4812 35.7707 21.5106 36.094 21.3312C37.0583 20.7965 38.0687 19.4322 36.094 18.3416C35.4593 17.9904 32.0009 16.0803 27.5578 13.625L21.4468 19.8623L27.5632 26.061Z" fill="#FFE300"/>
<path d="M21.4465 19.8623L1.90112 39.8109C2.34251 39.8676 2.8734 39.7492 3.48404 39.4106C4.74825 38.7098 18.3248 31.1825 27.5633 26.0604L21.4465 19.8623Z" fill="#FF4E54"/>
<path d="M21.4465 19.8623L27.5575 13.6251C27.5575 13.6251 4.8438 1.07311 3.48401 0.321705C2.96134 0.0327968 2.39149 -0.0680282 1.88708 0.0457468L21.4465 19.8623Z" fill="#00F085"/>
<path d="M21.4465 19.8622L1.88673 0.0458984C1.07883 0.228432 0.416748 0.936673 0.416748 2.36025V37.4332C0.416748 38.7738 0.93759 39.7167 1.90074 39.8107L21.4465 19.8622Z" fill="#00E0FF"/>
</svg>
